<svg xmlns="http://www.w3.org/2000/svg" xml:space="preserve" style="fill-rule:evenodd;clip-rule:evenodd;stroke-linecap:round;stroke-linejoin:round" viewBox="0 0 500 500"><path d="M456.55 209.11c-48.74-83.48-180.95-53.75-207.95-94.35-13.83-20.76-29.3-44.89-51.74-57.42-21.39-12-46.19-16.21-67.81-14.63-77.21 5.65-109.94 74.73-95.11 150.59C53.74 294.49 143.44 397.86 250 398.58c55.74.42 109-19.58 150.7-47.71l.93-.63c41.7-28.39 92.14-77.4 54.92-141.13Z" style="fill:#0ea5e9;fill-rule:nonzero" transform="matrix(1.13875 0 0 1.16342 -34.686 -49.319)"/><path d="M456.55 209.11c-48.74-83.48-180.95-53.75-207.95-94.35-13.83-20.76-29.3-44.89-51.74-57.42-21.39-12-46.19-16.21-67.81-14.63-77.21 5.65-109.94 74.73-95.11 150.59C53.74 294.49 143.44 397.86 250 398.58c55.74.42 109-19.58 150.7-47.71l.93-.63c41.7-28.39 92.14-77.4 54.92-141.13Z" style="fill:#fff;fill-opacity:.7;fill-rule:nonzero" transform="matrix(1.13875 0 0 1.16342 -34.686 -49.319)"/><path d="M78.19 215.18h-5.42c-12.03 0-21.93 9.9-21.93 21.93v120.34c0 12.03 9.9 21.93 21.93 21.93h74.36c12.03 0 21.93-9.9 21.93-21.93M163 101.63V77.86c0-7.356 6.044-13.414 13.4-13.43h96.7c7.367 0 13.43 6.063 13.43 13.43" style="fill:none;fill-rule:nonzero;stroke:#263238;stroke-width:1.1px;stroke-dasharray:4.41,4.41" transform="matrix(1.13875 0 0 1.16342 -34.686 -49.319)"/><g transform="matrix(1.13875 0 0 1.16342 -34.686 -49.319)"><ellipse cx="250" cy="445.4" rx="191.52" ry="26.76" style="fill:#0ea5e9"/><ellipse cx="250" cy="445.4" rx="191.52" ry="26.76" style="fill:#fff;fill-opacity:.5"/></g><g transform="matrix(1.13875 0 0 1.16342 -34.686 -49.319)"><path d="M430.54 133.52v180.06c0 12.175-10.015 22.195-22.19 22.2H91.65c-12.175-.005-22.19-10.025-22.19-22.2V133.52c0-.53 0-1 .07-1.56.804-11.557 10.535-20.637 22.12-20.64h316.7c11.599.005 21.336 9.107 22.12 20.68.05.48.07 1 .07 1.52Z" style="fill:#fff;fill-rule:nonzero;stroke:#263238;stroke-width:1.1px"/><path d="M80.26 140.28h340.61v166.33c0 11.411-9.389 20.8-20.8 20.8h-299c-11.411 0-20.8-9.389-20.8-20.8V140.28h-.01Z" style="fill:#263238;fill-rule:nonzero"/><path d="M420.88 140.28v166.33c.061 11.346-9.224 20.734-20.57 20.8H100.83c-11.346-.066-20.631-9.454-20.57-20.8V140.28h340.62Z" style="fill:#fff;fill-opacity:.2;fill-rule:nonzero"/><path d="M430.47 132H69.53c.804-11.557 10.535-20.637 22.12-20.64h316.7c11.585.003 21.316 9.083 22.12 20.64Z" style="fill:#0ea5e9;fill-rule:nonzero;stroke:#263238;stroke-width:1.1px;stroke-linecap:butt;stroke-linejoin:miter;stroke-miterlimit:10"/><path d="M113.88 121.64c0 2.156-1.774 3.93-3.93 3.93s-3.93-1.774-3.93-3.93 1.774-3.93 3.93-3.93 3.93 1.774 3.93 3.93Zm16.62 0c0 2.156-1.774 3.93-3.93 3.93s-3.93-1.774-3.93-3.93 1.774-3.93 3.93-3.93 3.93 1.774 3.93 3.93Z" style="fill:#263238;fill-rule:nonzero"/><circle cx="143.19" cy="121.64" r="3.93" style="fill:#263238"/><path d="M420.87 140.28v166.33c0 11.411-9.389 20.8-20.8 20.8h-299c-9.89-.002-18.479-7.058-20.4-16.76v-.06a21.059 21.059 0 0 1-.38-4V140.28h340.58Z" style="fill:none;fill-rule:nonzero;stroke:#263238;stroke-width:1.1px;stroke-linecap:butt;stroke-linejoin:miter;stroke-miterlimit:10"/><path d="M420.55 166a20.93 20.93 0 0 0-4.62-1.91l-1.87-8.35h-7.94l-1.85 8.35a20.226 20.226 0 0 0-4.64 1.91l-7.17-4.59-5.61 5.59 4.51 7.17a20.334 20.334 0 0 0-1.91 4.64l-8.35 1.85v7.94l8.35 1.87a20.03 20.03 0 0 0 1.91 4.66l-4.59 7.22 5.62 5.61 7.21-4.59a20.38 20.38 0 0 0 4.63 1.92l1.86 8.34H414l1.86-8.34a20.78 20.78 0 0 0 4.62-1.92l.37.24V165.8l-.3.2Zm-10.44 29c-5.628 0-10.26-4.632-10.26-10.26s4.632-10.26 10.26-10.26 10.26 4.632 10.26 10.26v.01c0 5.623-4.627 10.25-10.25 10.25h-.01Zm-132.66-20.95v-16.74l-17.6-3.91a45.497 45.497 0 0 0-4-9.77l2.13-3.35h-83.1l2.05 3.26a43.009 43.009 0 0 0-4 9.76l-17.61 3.92V174l17.61 3.93a43.65 43.65 0 0 0 4 9.84l-9.67 15.21 11.85 11.84 15.2-9.68a44.391 44.391 0 0 0 9.77 4.05l3.92 17.55h16.7l3.94-17.59a44.637 44.637 0 0 0 9.74-4.05l15.21 9.68 11.84-11.84-9.61-15.21a45.886 45.886 0 0 0 4-9.75l17.63-3.93Zm-61 13.26c-11.866 0-21.63-9.764-21.63-21.63s9.764-21.63 21.63-21.63 21.63 9.764 21.63 21.63v.01c0 11.86-9.76 21.62-21.62 21.62h-.01ZM166.38 289l.71-13.29-13.77-3.88a37.195 37.195 0 0 0-2.82-7.9l8.32-11.68-8.92-9.89-12.46 7a36.527 36.527 0 0 0-7.59-3.63l-2.38-14.12-13.28-.61-3.84 13.81a35.049 35.049 0 0 0-7.9 2.8l-11.67-8.31-9.91 8.91 7.06 12.47a34.955 34.955 0 0 0-3.64 7.58l-4 .66v18l2.92.82a34.63 34.63 0 0 0 2.79 7.91l-5.74 8.05.38 6.89v.06l5.93 6.57 12.48-7.05a34.651 34.651 0 0 0 7.61 3.67L109 327.4l.11.57 13.28.7.35-1.27 3.49-12.53a35.498 35.498 0 0 0 7.94-2.8l11.65 8.3 9.9-8.9-7-12.48a34.541 34.541 0 0 0 3.59-7.57l14.07-2.42Zm-35.27-20.75a17.206 17.206 0 0 0-12.791-5.701c-9.435 0-17.2 7.765-17.2 17.2 0 9.436 7.765 17.2 17.2 17.2 4.25 0 8.353-1.575 11.511-4.419 6.981-6.307 7.558-17.232 1.28-24.24v-.04Zm141.49.94a27.23 27.23 0 0 0 .81-6.29l9.55-5-2.64-9.69-10.78.5a27.306 27.306 0 0 0-3.87-5l3.19-10.31-8.7-5-7.28 7.94a28.803 28.803 0 0 0-6.27-.8l-5-9.55-9.68 2.63.51 10.79a27.262 27.262 0 0 0-5 3.87l-10.32-3.19-5 8.69 8 7.27a25.996 25.996 0 0 0-.79 6.27l-9.57 5 2.64 9.68 10.8-.51a25.39 25.39 0 0 0 3.85 5l-3.21 10.26 8.71 5 7.24-7.88c2.057.518 4.169.783 6.29.79l5 9.56 9.68-2.63-.43-9.22-.07-1.58a26.401 26.401 0 0 0 5.06-3.87l10.31 3.2 4.26-7.44.72-1.26-8.01-7.23Zm-22.87 5.88c-1.126.31-2.288.468-3.456.468-7.132 0-13-5.869-13-13 0-7.132 5.868-13 13-13 5.864 0 11.037 3.968 12.556 9.632 1.839 6.855-2.258 14.013-9.1 15.9Zm133.59 11.16 2.2-13.3-13.46-5.41a35.315 35.315 0 0 0-1.93-8.3l9.69-10.79-7.84-11-13.36 5.67a35.383 35.383 0 0 0-7.22-4.48l-.78-14.49-13.3-2.2-5.45 13.4a37.183 37.183 0 0 0-8.27 1.95l-10.82-9.69-10.95 7.84 5.68 13.35a36.217 36.217 0 0 0-4.05 6.29c-.15.31-.31.62-.45.93l-14.48.8-2.21 13.28 2.18.88 11.28 4.55a35.191 35.191 0 0 0 1.93 8.26L292 294.63l7.85 11 13.35-5.7a35.04 35.04 0 0 0 7.21 4.52l.75 14.42 13.29 2.2 5.44-13.3a35.112 35.112 0 0 0 8.28-1.94l10.8 9.69 11-7.85-5.68-13.36a34.773 34.773 0 0 0 4.55-7.25l14.48-.83Zm-37.3-.6a17.415 17.415 0 0 1-10.149 3.264c-9.551 0-17.41-7.859-17.41-17.41s7.859-17.41 17.41-17.41a17.423 17.423 0 0 1 14.149 7.266c5.559 7.765 3.745 18.73-4.02 24.29h.02Z" style="fill:#263238;fill-rule:nonzero"/></g><path d="M216.19 199.039c0-6.22-5.159-11.269-11.513-11.269H96.903c-6.354 0-11.513 5.049-11.513 11.269v148.472c0 6.22 5.159 11.269 11.513 11.269h107.774c6.354 0 11.513-5.049 11.513-11.269V199.039Z" style="fill:#0ea5e9;stroke:#263238;stroke-width:1.1px;stroke-linecap:butt;stroke-linejoin:miter;stroke-miterlimit:10" transform="matrix(1.13875 0 0 1.16342 -34.686 -49.319)"/><path d="M216.19 199.039c0-6.22-5.159-11.269-11.513-11.269H96.903c-6.354 0-11.513 5.049-11.513 11.269v148.472c0 6.22 5.159 11.269 11.513 11.269h107.774c6.354 0 11.513-5.049 11.513-11.269V199.039Z" style="fill-opacity:.2" transform="matrix(1.13875 0 0 1.16342 -34.686 -49.319)"/><path d="M228.36 213.8v144.8c0 7.192-5.918 13.11-13.11 13.11H110.67c-7.188-.005-13.1-5.922-13.1-13.11V213.8c0-7.188 5.912-13.105 13.1-13.11h104.58c7.192 0 13.11 5.918 13.11 13.11Z" style="fill:#fff;fill-rule:nonzero;stroke:#263238;stroke-width:1.1px" transform="matrix(1.13875 0 0 1.16342 -34.686 -49.319)"/><path d="M228.36 213.8v7.75H97.57v-7.75c0-7.188 5.912-13.105 13.1-13.11h104.58c7.192 0 13.11 5.918 13.11 13.11Z" style="fill:#0ea5e9;fill-rule:nonzero;stroke:#263238;stroke-width:1.1px;stroke-linecap:butt;stroke-linejoin:miter;stroke-miterlimit:10" transform="matrix(1.13875 0 0 1.16342 -34.686 -49.319)"/><path d="M109.87 230.53h32.18v5.4h-32.18zm0 48.39h32.18v5.4h-32.18zm0 43.88h32.18v5.4h-32.18z" style="fill:#0ea5e9" transform="matrix(1.13875 0 0 1.16342 -34.686 -49.319)"/><path d="M109.87 243.9h91.39v3.96h-91.39zm0 7.57h74.91v3.86h-74.91zm0 7.45h84.72v3.86h-84.72zm0 7.44h84.72v3.86h-84.72zm0 21.42h91.39v3.96h-91.39zm0 7.57h74.91v3.86h-74.91zm0 7.45h84.72v3.86h-84.72zm0 33.16h91.39v3.96h-91.39zm0 7.58h74.91v3.86h-74.91zm0 7.45h84.72v3.86h-84.72z" style="fill:#263238" transform="matrix(1.13875 0 0 1.16342 -34.686 -49.319)"/><path d="M375.77 100.29v58.52c0 8.574-7.056 15.63-15.63 15.63h-134.8c-8.574 0-15.63-7.056-15.63-15.63v-58.52c.005-8.578 7.062-15.635 15.64-15.64h134.78c8.58 0 15.64 7.06 15.64 15.64Z" style="fill:#fff;fill-rule:nonzero;stroke:#222221;stroke-width:1.1px;stroke-linecap:butt;stroke-linejoin:miter;stroke-miterlimit:10" transform="matrix(1.13875 0 0 1.16342 -34.686 -49.319)"/><path d="M375.77 100.29v1.34H209.71v-1.34c.005-8.578 7.062-15.635 15.64-15.64h134.78c8.58 0 15.64 7.06 15.64 15.64Z" style="fill:#0ea5e9;fill-rule:nonzero;stroke:#263238;stroke-width:1.1px;stroke-linecap:butt;stroke-linejoin:miter;stroke-miterlimit:10" transform="matrix(1.13875 0 0 1.16342 -34.686 -49.319)"/><path d="M234.11 95.94a2.402 2.402 0 0 1-1.699.705 2.41 2.41 0 0 1-2.4-2.4 2.41 2.41 0 0 1 2.4-2.4c.637 0 1.249.254 1.699.705a2.421 2.421 0 0 1 0 3.39Zm11.12 0a2.402 2.402 0 0 1-1.699.705 2.41 2.41 0 0 1-2.4-2.4 2.41 2.41 0 0 1 2.4-2.4c.637 0 1.249.254 1.699.705a2.421 2.421 0 0 1 0 3.39Zm11.12 0a2.402 2.402 0 0 1-1.699.705 2.41 2.41 0 0 1-2.4-2.4 2.41 2.41 0 0 1 2.4-2.4c.637 0 1.249.254 1.699.705a2.421 2.421 0 0 1 0 3.39Z" style="fill:#263238;fill-rule:nonzero" transform="matrix(1.13875 0 0 1.16342 -34.686 -49.319)"/><path d="M220.3 112.39h54.28v46.92H220.3z" style="fill:none;stroke:#263238;stroke-width:1.1px;stroke-dasharray:4.41,4.41" transform="matrix(1.13875 0 0 1.16342 -34.686 -49.319)"/><path d="M282.96 112.39h62.47v3.3h-62.47zm0 6.83h47.92v3.29h-47.92zm0 6.8h71.35v3.33h-71.35zm0 6.63h60.76v3.33h-60.76z" style="fill:#263238" transform="matrix(1.13875 0 0 1.16342 -34.686 -49.319)"/><path d="M386.84 251.143c0-3.098-2.569-5.613-5.734-5.613h-32.142c-3.165 0-5.734 2.515-5.734 5.613v19.764c0 3.098 2.569 5.613 5.734 5.613h32.142c3.165 0 5.734-2.515 5.734-5.613v-19.764Z" style="fill:#fff;stroke:#263238;stroke-width:1.1px" transform="matrix(1.13875 0 0 1.16342 -34.686 -49.319)"/><path d="m357.3 254.85-8.39 5.26 7.79 6.9m15.88.5 7.54-6.42-8.7-5.7m-10.04 16.08 6.19-19.42" style="fill:none;fill-rule:nonzero;stroke:#263238;stroke-width:1.1px" transform="matrix(1.13875 0 0 1.16342 -34.686 -49.319)"/><path d="M296.86 440.47s-29 8.31-33.05 9.75c-3.68 1.3-13.66 4.8-21.15 3.71a15.954 15.954 0 0 1-2.14-.46c-7.59-2.26-11-4.37-12-9.14-1-4.77 2.78-8.29 6.42-10.54s23.38-4.6 23.38-4.6l4.77 1.4 33.77 9.88Z" style="fill:#0ea5e9;fill-rule:nonzero" transform="matrix(1.13875 0 0 1.16342 -34.686 -49.319)"/><path d="M242.66 453.93a15.954 15.954 0 0 1-2.14-.46c-7.59-2.26-11-4.37-12-9.14-1-4.77 2.78-8.29 6.42-10.54s23.38-4.6 23.38-4.6l4.77 1.4c-4.32 2-20.4 3.09-23.91 5.11-3.51 2.02-5.2 5.82-3.13 11 1.11 2.7 4.07 5.35 6.61 7.23Z" style="fill:#fff;fill-rule:nonzero" transform="matrix(1.13875 0 0 1.16342 -34.686 -49.319)"/><path d="M292.5 441.65s-21.78 5.64-30.42 9.25c-8.64 3.61-25.11 5.19-31-2.25-5.89-7.44-.68-13.86 5.19-15.29 5.87-1.43 17.74-3.68 24.22-2.77" style="fill:none;fill-rule:nonzero;stroke:#263238;stroke-width:1.1px" transform="matrix(1.13875 0 0 1.16342 -34.686 -49.319)"/><path d="M243.09 453.54s-11.08-6.08-7.4-14.6c2.72-6.28 17.5-4.92 24.82-8.35" style="fill:none;fill-rule:nonzero;stroke:#263238;stroke-width:1.1px" transform="matrix(1.13875 0 0 1.16342 -34.686 -49.319)"/><path d="M385.19 455.28c-.3 3-1.35 5.81-4.35 7.58-2 1.18-4.84 1.88-8.91 1.84-10.17-.13-29.29-7.4-29.29-7.4l-17.9-9.9 9.31-14.73 2.55-4 6.58 1.48s5.45 3.09 10.93 5.55c5.48 2.46 18.79 3 23.48 6.77 4.69 3.77 8.11 7.87 7.6 12.81Z" style="fill:#0ea5e9;fill-rule:nonzero" transform="matrix(1.13875 0 0 1.16342 -34.686 -49.319)"/><path d="M385.19 455.28c-.3 3-1.35 5.81-4.35 7.58a13.395 13.395 0 0 0-.5-8.94c-2-4.49-8.51-8.45-17.07-9.11-8.56-.66-15.11-4.66-18.54-6.45-2.68-1.39-8.33-4.43-10.68-5.69l2.55-4 6.58 1.48s5.45 3.09 10.93 5.55c5.48 2.46 18.79 3 23.48 6.77 4.69 3.77 8.11 7.87 7.6 12.81Z" style="fill:#fff;fill-rule:nonzero" transform="matrix(1.13875 0 0 1.16342 -34.686 -49.319)"/><path d="M328.71 450.18a112.865 112.865 0 0 0 41.9 14.31c3.26.39 7.05.45 9.23-2a6.825 6.825 0 0 0 1.5-5.11c-.39-4.6-4.26-8.24-8.5-10.07s-8.91-2.25-13.42-3.26a53.395 53.395 0 0 1-12.9-4.72c-3.24-1.69-6.37-3.74-9.94-4.5-3.57-.76-7.82.16-9.73 3.28" style="fill:none;fill-rule:nonzero;stroke:#263238;stroke-width:1.1px" transform="matrix(1.13875 0 0 1.16342 -34.686 -49.319)"/><path d="M378.64 463.74a11.925 11.925 0 0 0 6.55-8.46c.65-4.33-1.82-8.69-5.29-11.35-3.47-2.66-7.82-3.92-12.11-4.81-4.29-.89-8.68-1.49-12.79-3.12-6.27-2.46-12.46-7.3-19-5.57" style="fill:none;fill-rule:nonzero;stroke:#263238;stroke-width:1.1px" transform="matrix(1.13875 0 0 1.16342 -34.686 -49.319)"/><path d="m348.91 295.26-30.29-11.52-.38-.15s.11-.8.2-2c.19-2.42.29-6.36-.85-7.69-1.69-2-6.47-.32-11.14-2.46-4.67-2.14-13.3 1.69-13.3 1.69s-6.24-1.15-9 3.35c-1.4 3.63-.92 9-.92 9l-.57.2c-3.61 1.35-23.25 8.74-27.4 11.71-4.59 3.25-9.67 36.62-11.3 46.42-1.63 9.8-4.53 18.63-3.06 22 1.47 3.37 22.57 19.62 34.71 23.81 12.14 4.19 55.19 3 55.19 3s.7-.19 1.95-.59c7.28-2.34 33.11-12 46.82-34.68.02.04-13.26-43.49-30.66-62.09Zm-81.84 56.13c-2.23 1.58-1 7.7-1 7.7l-3.79-3.34 9.52-23.41 4.06 18s-6.56-.52-8.79 1.05Zm76.16 14.87c-1.05.54 3-10.71 1.08-13.26-1.92-2.55-7.71-2.31-7.71-2.31l.49-3.07 3.43-17.6 1.14-1.35s11.78 20.19 13.89 27.31c0 .02-12.84 10.28-12.32 10.28Z" style="fill:#0ea5e9;fill-rule:nonzero" transform="matrix(1.13875 0 0 1.16342 -34.686 -49.319)"/><path d="m291.72 222.25-15.64 16.6s-2.15 1.91-1.3 6.72c.85 4.81 2.85 9 4.36 9.28 1.195.209 2.406.316 3.62.32 1.214.004 3.35 7.26 5.73 10.11 0 0 .82 11.21.38 14.32 0 0 5.62 4.91 10.91 5.53 5.29.62 13.46-7.48 13.46-7.48l2-9.92s4.8-7.28 5.12-9.22c.32-1.94 2.52-1.44 3.6-2.4s3.57-5.23 4-9.27c.43-4.04.44-8.68-4.25-7.32-4.07-1.09-1.52-9.69-1.52-9.69l-7.15-6.3-23.32-1.28Z" style="fill:#fff;fill-rule:nonzero" transform="matrix(1.13875 0 0 1.16342 -34.686 -49.319)"/><path d="M318.62 283.74a17.65 17.65 0 0 1-.81 1.81c-2.58 4.86-13.82 14.13-13.82 14.13l-3.4-10.45-1.86 10.45c-3.75-1.64-15.19-11.55-15.19-11.55s-.39-.93-.86-2.38l.57-.2s-.48-5.41.92-9c2.74-4.5 9-3.35 9-3.35s8.63-3.83 13.3-1.69 9.45.48 11.14 2.46c1.69 1.98.65 9.66.65 9.66l.36.11Z" style="fill:#fff;fill-opacity:.5;fill-rule:nonzero" transform="matrix(1.13875 0 0 1.16342 -34.686 -49.319)"/><path d="m348.91 295.26-30.29-11.52-.38-.15s.11-.8.2-2l-.63 3.93-4.48 6.08a123.994 123.994 0 0 1 14 6.16 12.3 12.3 0 0 1 6.4 12.24l-5.58 47.75-2.29 27.11 6.91 7.17c7.28-2.34 33.11-12 46.82-34.68 0 .04-13.28-43.49-30.68-62.09Zm-5.68 71c-1.05.54 3-10.71 1.08-13.26-1.92-2.55-7.71-2.31-7.71-2.31l.49-3.07 3.43-17.6 1.14-1.35s11.78 20.19 13.89 27.31c0 .02-12.84 10.28-12.32 10.28ZM277.87 353l-4.71-15.74s-8.45-28.81-14.24-35.91l1.52 20.26s-5 24.2-9.57 31.39c-4.57 7.19-5.59 9 0 9s19.2 10.84 19.2 10.84l-1.05-9 8.85-10.84ZM266 359.09l-3.79-3.34 9.52-23.41 4.06 18s-6.52-.49-8.75 1.08c-2.23 1.57-1.04 7.67-1.04 7.67Z" style="fill-opacity:.2;fill-rule:nonzero" transform="matrix(1.13875 0 0 1.16342 -34.686 -49.319)"/><path d="M288.49 265.28s.86 8.49 0 12.37m25.62-1.14c.009-2.73.325-5.45.94-8.11" style="fill:none;fill-rule:nonzero;stroke:#263238;stroke-width:1.1px" transform="matrix(1.13875 0 0 1.16342 -34.686 -49.319)"/><path d="M316.38 228.58s5.14 6.45 4.87 11.33c-.27 4.88-.65 10.66-.52 16.32s-9.09 17.52-13.83 18.57c-4.74 1.05-8.82 1.32-11.85-1.71-3.03-3.03-6.06-7.24-10-12.64-3.94-5.4-3-17.25-3-17.25" style="fill:none;fill-rule:nonzero;stroke:#263238;stroke-width:1.1px" transform="matrix(1.13875 0 0 1.16342 -34.686 -49.319)"/><path d="M304 247.71a26.841 26.841 0 0 0-.4 5.37 6.049 6.049 0 0 0 1.32 4.2c.57.58 1.39 1.05 1.5 1.85a2.002 2.002 0 0 1-1.06 1.75c-.641.323-1.259.691-1.85 1.1m-7.64.62s.59 3.83 5.72 4.63" style="fill:none;fill-rule:nonzero;stroke:#263238;stroke-width:1.1px" transform="matrix(1.13875 0 0 1.16342 -34.686 -49.319)"/><path d="M296.4 250.63c0 1.11-.48 2-1.07 2-.59 0-1.07-.89-1.07-2 0-1.11.48-2 1.07-2 .59 0 1.07.9 1.07 2Zm15.31.48c0 1.11-.48 2-1.07 2-.59 0-1.07-.9-1.07-2s.48-2 1.07-2c.59 0 1.07.89 1.07 2Z" style="fill:#263238;fill-rule:nonzero" transform="matrix(1.13875 0 0 1.16342 -34.686 -49.319)"/><path d="M308.62 246.26s5-5 9.19.58m-19.72-.48s-3.16-3.54-8.14 0" style="fill:none;fill-rule:nonzero;stroke:#263238;stroke-width:2.21px" transform="matrix(1.13875 0 0 1.16342 -34.686 -49.319)"/><path d="M288.87 270s3.05 8.4 9.86 10.79c6.81 2.39 15.85-10 15.85-10l-.47-1.61s-5.93 7.7-12.52 6.39c-6.59-1.31-13.1-10.25-13.1-10.25l.38 4.68Z" style="fill:#263238;fill-rule:nonzero" transform="matrix(1.13875 0 0 1.16342 -34.686 -49.319)"/><path d="M282.76 254.85s-4.06 1.43-5.14-1.73-4.78-11.49-1.54-14.27c3.24-2.78 5.84 3.67 5.84 3.67m38.8 14.05s3.77.76 4.85-2.4c1.08-3.16 4.78-11.49 1.54-14.27-3.24-2.78-5.84 3.67-5.84 3.67" style="fill:none;fill-rule:nonzero;stroke:#263238;stroke-width:1.1px" transform="matrix(1.13875 0 0 1.16342 -34.686 -49.319)"/><path d="M281.92 250.63a5.623 5.623 0 0 0 3.56-2.1 8.748 8.748 0 0 0 1-3.19c.371-2.127.559-4.281.56-6.44a8.796 8.796 0 0 1 .23-2.51c.3-.826.763-1.585 1.36-2.23 1.41-1.66 3.12-3.06 4.47-4.78a8.002 8.002 0 0 0 2-6 27.462 27.462 0 0 0 22.47 5.81c7.15-1.4 14-7.67 13.17-15.55a6.384 6.384 0 0 0-5-5.48c-3.53-.88-6.7 1-9.9 2.21-5.83 2.2-11.54-1.58-17.43-2.21-5-.55-11.23.08-13.85 5.09 0 0-9 1.06-13 8.5-4 7.44 3.57 17.73 3.57 17.73s3-3.68 6.93 3.76l-.14 7.39Z" style="fill:#263238;fill-rule:nonzero" transform="matrix(1.13875 0 0 1.16342 -34.686 -49.319)"/><path d="M317 226.68s-2.34 12.2 3.77 18.11c0 0 1.34-3.67 2.69-4.57a14.143 14.143 0 0 0-1.07-13.54c-4.52-7.1-5.39 0-5.39 0Z" style="fill:#263238;fill-rule:nonzero" transform="matrix(1.13875 0 0 1.16342 -34.686 -49.319)"/><path d="M328.14 212.8a11.496 11.496 0 0 1-7 7.27c-8.48 3.46-16.71-.37-25.21-1.12-6.93-.62-14.58 5.64-15.07 12.76m-5.23-1.88a14.832 14.832 0 0 1 9-13.08" style="fill:none;fill-rule:nonzero;stroke:#fff;stroke-opacity:.2;stroke-width:1.1px" transform="matrix(1.13875 0 0 1.16342 -34.686 -49.319)"/><path d="M286.53 276.51a38.714 38.714 0 0 0 13.21 9c4.981 2.048 10.15-2.95 15.31-10" style="fill:none;fill-rule:nonzero;stroke:#263238;stroke-width:1.1px" transform="matrix(1.13875 0 0 1.16342 -34.686 -49.319)"/><circle cx="293.15" cy="250.63" r="8.98" style="fill:none;stroke:#263238;stroke-width:1.1px" transform="matrix(1.03506 -.48505 .47476 1.05748 -123.27 119.4)"/><circle cx="313.22" cy="250.63" r="8.98" style="fill:none;stroke:#263238;stroke-width:1.1px" transform="scale(1.13875 1.16342) rotate(-7 -48.4 478.54)"/><path d="M288.49 273.16a7.004 7.004 0 0 0-4.33 3.35c-1.59 2.8-.63 11.61-.63 11.61s8.21 8.12 15.2 11.55l2.06-11.59 3.2 11.59s10.82-7.65 13.82-14.12c0 0 1-7.55 0-10a3.478 3.478 0 0 0-3.23-2.37m-38.95 77.52s-3.21-21.5-7.48-30.27m-9.23-19.08a86.948 86.948 0 0 1 6.64 11.11m77.67 4.94a62.055 62.055 0 0 1 3.53-10.49M336.6 350.7s2.31-14.74 5.07-26.88m-1.15 6.18a17 17 0 0 1 8.94-6.12" style="fill:none;fill-rule:nonzero;stroke:#263238;stroke-width:1.1px" transform="matrix(1.13875 0 0 1.16342 -34.686 -49.319)"/><path d="M318.25 283.59s18.63 7.45 30.66 11.68c0 0 14.8 13.91 30.67 62.12 0 0-14.54 24.46-42.2 32.3" style="fill:none;fill-rule:nonzero;stroke:#263238;stroke-width:1.1px" transform="matrix(1.13875 0 0 1.16342 -34.686 -49.319)"/><path d="M342.18 367.13 355.55 356s7.07-5.37 14.42-1.7m-28.3-25.63S352.72 345 355.55 356m-89.4 3.71-3.91-3.71s-5.8-1-12.38 3.39m12.38-3.39s4.86-16 9.65-24.19" style="fill:none;fill-rule:nonzero;stroke:#263238;stroke-width:1.1px" transform="matrix(1.13875 0 0 1.16342 -34.686 -49.319)"/><path d="M283.25 285.55s-26.81 10.06-29.44 13c-2.63 2.94-12.62 59.19-12.89 65.63-.23 5.76 20.65 18.69 31 24.14" style="fill:none;fill-rule:nonzero;stroke:#263238;stroke-width:1.1px" transform="matrix(1.13875 0 0 1.16342 -34.686 -49.319)"/><path d="M303.3 304.56c0 .971-.799 1.77-1.77 1.77s-1.77-.799-1.77-1.77.799-1.77 1.77-1.77h.01c.966 0 1.76.794 1.76 1.76v.01Zm31.02 94.22h-61c-.784 0-1.43-.646-1.43-1.43 0-.784.646-1.43 1.43-1.43h61c.784 0 1.43.646 1.43 1.43 0 .784-.646 1.43-1.43 1.43Z" style="fill:#263238;fill-rule:nonzero" transform="matrix(1.13875 0 0 1.16342 -34.686 -49.319)"/><path d="m336.46 394 8.17-38.4c.06-.279.09-.564.09-.85 0-2.238-1.842-4.08-4.08-4.08h-71.31c-2.238 0-4.079 1.842-4.079 4.08 0 .269.026.537.079.8l7.33 37.12a4.091 4.091 0 0 0 3.91 3.29l55.79 1.28a4.114 4.114 0 0 0 4.1-3.24Z" style="fill:#fff;fill-rule:nonzero;stroke:#263238;stroke-width:1.1px" transform="matrix(1.13875 0 0 1.16342 -34.686 -49.319)"/><path d="M310.44 372.83c-.005 3.118-2.572 5.68-5.69 5.68-3.121 0-5.69-2.569-5.69-5.69 0-3.121 2.569-5.69 5.69-5.69 3.121 0 5.69 2.569 5.69 5.69v.01Z" style="fill:#263238;fill-rule:nonzero" transform="matrix(1.13875 0 0 1.16342 -34.686 -49.319)"/><path d="M321.63 354.34h8.47m-48.92 0h32.15" style="fill:none;fill-rule:nonzero;stroke:#263238;stroke-width:1.1px" transform="matrix(1.13875 0 0 1.16342 -34.686 -49.319)"/><path d="m336.6 434.77-6.5 17.06s-16.58-4.18-37.81-8.53c-22.21-4.55-45.4-10.44-57.43-31.55-1.46-2.57-2.44-5.61-1.75-8.49 1.73-7.29 11.22-9.27 17.47-10 3.929-.425 7.878-.645 11.83-.66 2 0 8.65-1.09 10.26.1a47.133 47.133 0 0 0 7.71 4.57c3.55 1.51 55.37-1.35 55.37-1.35a18.584 18.584 0 0 0 1.63-6.23c8.15-4.14 27-7.64 35-6.09 12.53 2.43 19.84 9.74 18.45 17.4-1.39 7.66-29.07 28.2-54.23 33.77Z" style="fill:#263238;fill-rule:nonzero" transform="matrix(1.13875 0 0 1.16342 -34.686 -49.319)"/><path d="M336.6 434.77s-15.77-4.18-28.65-12.88c-12.88-8.7-22.94-18.8-40.89-16.71" style="fill:none;fill-rule:nonzero;stroke:#fff;stroke-width:1.1px" transform="matrix(1.13875 0 0 1.16342 -34.686 -49.319)"/><path d="M305 419.84c8.14-2.34 14.11-7.61 20.64-12.66a139.589 139.589 0 0 1 22.09-14.52" style="fill:none;fill-rule:nonzero;stroke:#fff;stroke-width:1.1px" transform="matrix(1.13875 0 0 1.16342 -34.686 -49.319)"/><path d="M302.13 252.05h2.39" style="fill:none;fill-rule:nonzero;stroke:#263238;stroke-width:1.1px" transform="matrix(1.13875 0 0 1.16342 -34.686 -49.319)"/></svg>