<?xml version="1.0" encoding="UTF-8" standalone="no"?>
<!DOCTYPE svg PUBLIC "-//W3C//DTD SVG 1.1//EN" "http://www.w3.org/Graphics/SVG/1.1/DTD/svg11.dtd">
<svg width="100%" height="100%" viewBox="0 0 500 500" version="1.1" xmlns="http://www.w3.org/2000/svg" xmlns:xlink="http://www.w3.org/1999/xlink" xml:space="preserve" xmlns:serif="http://www.serif.com/" style="fill-rule:evenodd;clip-rule:evenodd;stroke-linecap:round;stroke-linejoin:round;">
    <g id="freepik--background-simple--inject-5" transform="matrix(1.13875,0,0,1.16342,-34.6863,-49.319)">
        <path d="M456.55,209.11C407.81,125.63 275.6,155.36 248.6,114.76C234.77,94 219.3,69.87 196.86,57.34C175.47,45.34 150.67,41.13 129.05,42.71C51.84,48.36 19.11,117.44 33.94,193.3C53.74,294.49 143.44,397.86 250,398.58C305.74,399 359,379 400.7,350.87L401.63,350.24C443.33,321.85 493.77,272.84 456.55,209.11Z" style="fill:rgb(14,165,233);fill-rule:nonzero;"/>
        <path d="M456.55,209.11C407.81,125.63 275.6,155.36 248.6,114.76C234.77,94 219.3,69.87 196.86,57.34C175.47,45.34 150.67,41.13 129.05,42.71C51.84,48.36 19.11,117.44 33.94,193.3C53.74,294.49 143.44,397.86 250,398.58C305.74,399 359,379 400.7,350.87L401.63,350.24C443.33,321.85 493.77,272.84 456.55,209.11Z" style="fill:white;fill-opacity:0.7;fill-rule:nonzero;"/>
    </g>
    <g id="freepik--Lines--inject-5" transform="matrix(1.13875,0,0,1.16342,-34.6863,-49.319)">
        <path d="M78.19,215.18L72.77,215.18C60.74,215.18 50.84,225.08 50.84,237.11L50.84,357.45C50.84,369.48 60.74,379.38 72.77,379.38L147.13,379.38C159.16,379.38 169.06,369.48 169.06,357.45" style="fill:none;fill-rule:nonzero;stroke:rgb(38,50,56);stroke-width:1.1px;stroke-dasharray:4.41,4.41;"/>
        <path d="M163,101.63L163,77.86C163,70.504 169.044,64.446 176.4,64.43L273.1,64.43C280.467,64.43 286.53,70.493 286.53,77.86" style="fill:none;fill-rule:nonzero;stroke:rgb(38,50,56);stroke-width:1.1px;stroke-dasharray:4.41,4.41;"/>
    </g>
    <g id="freepik--Shadow--inject-5" transform="matrix(1.13875,0,0,1.16342,-34.6863,-49.319)">
        <ellipse cx="250" cy="445.4" rx="191.52" ry="26.76" style="fill:rgb(14,165,233);"/>
        <ellipse cx="250" cy="445.4" rx="191.52" ry="26.76" style="fill:white;fill-opacity:0.5;"/>
    </g>
    <g id="freepik--Window--inject-5" transform="matrix(1.13875,0,0,1.16342,-34.6863,-49.319)">
        <path d="M430.54,133.52L430.54,313.58C430.54,325.755 420.525,335.775 408.35,335.78L91.65,335.78C79.475,335.775 69.46,325.755 69.46,313.58L69.46,133.52C69.46,132.99 69.46,132.52 69.53,131.96C70.334,120.403 80.065,111.323 91.65,111.32L408.35,111.32C419.949,111.325 429.686,120.427 430.47,132C430.52,132.48 430.54,133 430.54,133.52Z" style="fill:white;fill-rule:nonzero;stroke:rgb(38,50,56);stroke-width:1.1px;"/>
        <path d="M80.26,140.28L420.87,140.28L420.87,306.61C420.87,318.021 411.481,327.41 400.07,327.41L101.07,327.41C89.659,327.41 80.27,318.021 80.27,306.61L80.27,140.28L80.26,140.28Z" style="fill:rgb(38,50,56);fill-rule:nonzero;"/>
        <path d="M420.88,140.28L420.88,306.61C420.941,317.956 411.656,327.344 400.31,327.41L100.83,327.41C89.484,327.344 80.199,317.956 80.26,306.61L80.26,140.28L420.88,140.28Z" style="fill:white;fill-opacity:0.2;fill-rule:nonzero;"/>
        <path d="M430.47,132L69.53,132C70.334,120.443 80.065,111.363 91.65,111.36L408.35,111.36C419.935,111.363 429.666,120.443 430.47,132Z" style="fill:rgb(14,165,233);fill-rule:nonzero;stroke:rgb(38,50,56);stroke-width:1.1px;stroke-linecap:butt;stroke-linejoin:miter;stroke-miterlimit:10;"/>
        <path d="M113.88,121.64C113.88,123.796 112.106,125.57 109.95,125.57C107.794,125.57 106.02,123.796 106.02,121.64C106.02,119.484 107.794,117.71 109.95,117.71C112.106,117.71 113.88,119.484 113.88,121.64Z" style="fill:rgb(38,50,56);fill-rule:nonzero;"/>
        <path d="M130.5,121.64C130.5,123.796 128.726,125.57 126.57,125.57C124.414,125.57 122.64,123.796 122.64,121.64C122.64,119.484 124.414,117.71 126.57,117.71C128.726,117.71 130.5,119.484 130.5,121.64Z" style="fill:rgb(38,50,56);fill-rule:nonzero;"/>
        <circle cx="143.19" cy="121.64" r="3.93" style="fill:rgb(38,50,56);"/>
        <path d="M420.87,140.28L420.87,306.61C420.87,318.021 411.481,327.41 400.07,327.41L101.07,327.41C91.18,327.408 82.591,320.352 80.67,310.65L80.67,310.59C80.416,309.272 80.289,307.932 80.29,306.59L80.29,140.28L420.87,140.28Z" style="fill:none;fill-rule:nonzero;stroke:rgb(38,50,56);stroke-width:1.1px;stroke-linecap:butt;stroke-linejoin:miter;stroke-miterlimit:10;"/>
        <path d="M420.55,166C419.092,165.181 417.541,164.54 415.93,164.09L414.06,155.74L406.12,155.74L404.27,164.09C402.65,164.532 401.091,165.173 399.63,166L392.46,161.41L386.85,167L391.36,174.17C390.534,175.632 389.893,177.19 389.45,178.81L381.1,180.66L381.1,188.6L389.45,190.47C389.888,192.098 390.53,193.663 391.36,195.13L386.77,202.35L392.39,207.96L399.6,203.37C401.058,204.198 402.614,204.843 404.23,205.29L406.09,213.63L414,213.63L415.86,205.29C417.472,204.838 419.023,204.194 420.48,203.37L420.85,203.61L420.85,165.8L420.55,166ZM410.11,195C404.482,195 399.85,190.368 399.85,184.74C399.85,179.112 404.482,174.48 410.11,174.48C415.738,174.48 420.37,179.112 420.37,184.74C420.37,184.743 420.37,184.75 420.37,184.75C420.37,190.373 415.743,195 410.12,195C410.117,195 410.113,195 410.11,195Z" style="fill:rgb(38,50,56);fill-rule:nonzero;"/>
        <path d="M277.45,174.05L277.45,157.31L259.85,153.4C258.9,149.999 257.558,146.72 255.85,143.63L257.98,140.28L174.88,140.28L176.93,143.54C175.201,146.617 173.858,149.895 172.93,153.3L155.32,157.22L155.32,174L172.93,177.93C173.858,181.361 175.201,184.665 176.93,187.77L167.26,202.98L179.11,214.82L194.31,205.14C197.394,206.875 200.674,208.234 204.08,209.19L208,226.74L224.7,226.74L228.64,209.15C232.035,208.19 235.305,206.83 238.38,205.1L253.59,214.78L265.43,202.94L255.82,187.73C257.523,184.644 258.866,181.373 259.82,177.98L277.45,174.05ZM216.45,187.31C204.584,187.31 194.82,177.546 194.82,165.68C194.82,153.814 204.584,144.05 216.45,144.05C228.316,144.05 238.08,153.814 238.08,165.68C238.08,165.683 238.08,165.687 238.08,165.69C238.08,177.55 228.32,187.31 216.46,187.31C216.457,187.31 216.453,187.31 216.45,187.31Z" style="fill:rgb(38,50,56);fill-rule:nonzero;"/>
        <path d="M166.38,289L167.09,275.71L153.32,271.83C152.681,269.099 151.735,266.449 150.5,263.93L158.82,252.25L149.9,242.36L137.44,249.36C135.058,247.862 132.511,246.643 129.85,245.73L127.47,231.61L114.19,231L110.35,244.81C107.614,245.424 104.962,246.364 102.45,247.61L90.78,239.3L80.87,248.21L87.93,260.68C86.416,263.051 85.194,265.596 84.29,268.26L80.29,268.92L80.29,286.92L83.21,287.74C83.816,290.48 84.753,293.136 86,295.65L80.26,303.7L80.64,310.59L80.64,310.65L86.57,317.22L99.05,310.17C101.428,311.699 103.983,312.932 106.66,313.84L109,327.4L109.11,327.97L122.39,328.67L122.74,327.4L126.23,314.87C128.978,314.255 131.644,313.315 134.17,312.07L145.82,320.37L155.72,311.47L148.72,298.99C150.219,296.622 151.425,294.08 152.31,291.42L166.38,289ZM131.11,268.25C127.85,264.623 123.196,262.549 118.319,262.549C108.884,262.549 101.119,270.314 101.119,279.749C101.119,289.185 108.884,296.949 118.319,296.949C122.569,296.949 126.672,295.374 129.83,292.53C136.811,286.223 137.388,275.298 131.11,268.29L131.11,268.25Z" style="fill:rgb(38,50,56);fill-rule:nonzero;"/>
        <path d="M272.6,269.19C273.114,267.132 273.386,265.021 273.41,262.9L282.96,257.9L280.32,248.21L269.54,248.71C268.448,246.899 267.149,245.221 265.67,243.71L268.86,233.4L260.16,228.4L252.88,236.34C250.826,235.844 248.723,235.576 246.61,235.54L241.61,225.99L231.93,228.62L232.44,239.41C230.629,240.502 228.951,241.8 227.44,243.28L217.12,240.09L212.12,248.78L220.12,256.05C219.603,258.1 219.337,260.206 219.33,262.32L209.76,267.32L212.4,277L223.2,276.49C224.27,278.31 225.564,279.99 227.05,281.49L223.84,291.75L232.55,296.75L239.79,288.87C241.847,289.388 243.959,289.653 246.08,289.66L251.08,299.22L260.76,296.59L260.33,287.37L260.26,285.79C262.097,284.709 263.796,283.409 265.32,281.92L275.63,285.12L279.89,277.68L280.61,276.42L272.6,269.19ZM249.73,275.07C248.604,275.38 247.442,275.538 246.274,275.538C239.142,275.538 233.274,269.669 233.274,262.538C233.274,255.406 239.142,249.538 246.274,249.538C252.138,249.538 257.311,253.506 258.83,259.17C260.669,266.025 256.572,273.183 249.73,275.07Z" style="fill:rgb(38,50,56);fill-rule:nonzero;"/>
        <path d="M383.32,286.23L385.52,272.93L372.06,267.52C371.754,264.686 371.106,261.898 370.13,259.22L379.82,248.43L371.98,237.43L358.62,243.1C356.402,241.322 353.978,239.818 351.4,238.62L350.62,224.13L337.32,221.93L331.87,235.33C329.048,235.662 326.273,236.316 323.6,237.28L312.78,227.59L301.83,235.43L307.51,248.78C305.947,250.731 304.589,252.839 303.46,255.07C303.31,255.38 303.15,255.69 303.01,256L288.53,256.8L286.32,270.08L288.5,270.96L299.78,275.51C300.088,278.331 300.736,281.105 301.71,283.77L292,294.63L299.85,305.63L313.2,299.93C315.411,301.724 317.832,303.242 320.41,304.45L321.16,318.87L334.45,321.07L339.89,307.77C342.718,307.461 345.499,306.81 348.17,305.83L358.97,315.52L369.97,307.67L364.29,294.31C366.099,292.09 367.628,289.655 368.84,287.06L383.32,286.23ZM346.02,285.63C343.062,287.752 339.511,288.894 335.871,288.894C326.32,288.894 318.461,281.035 318.461,271.484C318.461,261.933 326.32,254.074 335.871,254.074C341.478,254.074 346.753,256.783 350.02,261.34C355.579,269.105 353.765,280.07 346,285.63L346.02,285.63Z" style="fill:rgb(38,50,56);fill-rule:nonzero;"/>
    </g>
    <g id="freepik--Graphics--inject-5" transform="matrix(1.13875,0,0,1.16342,-34.6863,-49.319)">
        <path d="M216.19,199.039C216.19,192.819 211.031,187.77 204.677,187.77L96.903,187.77C90.549,187.77 85.39,192.819 85.39,199.039L85.39,347.511C85.39,353.731 90.549,358.78 96.903,358.78L204.677,358.78C211.031,358.78 216.19,353.731 216.19,347.511L216.19,199.039Z" style="fill:rgb(14,165,233);stroke:rgb(38,50,56);stroke-width:1.1px;stroke-linecap:butt;stroke-linejoin:miter;stroke-miterlimit:10;"/>
        <path d="M216.19,199.039C216.19,192.819 211.031,187.77 204.677,187.77L96.903,187.77C90.549,187.77 85.39,192.819 85.39,199.039L85.39,347.511C85.39,353.731 90.549,358.78 96.903,358.78L204.677,358.78C211.031,358.78 216.19,353.731 216.19,347.511L216.19,199.039Z" style="fill-opacity:0.2;"/>
        <path d="M228.36,213.8L228.36,358.59C228.36,358.593 228.36,358.597 228.36,358.6C228.36,365.792 222.442,371.71 215.25,371.71L110.67,371.71C103.482,371.705 97.57,365.788 97.57,358.6C97.57,358.597 97.57,358.593 97.57,358.59L97.57,213.8C97.57,206.612 103.482,200.695 110.67,200.69L215.25,200.69C222.442,200.69 228.36,206.608 228.36,213.8Z" style="fill:white;fill-rule:nonzero;stroke:rgb(38,50,56);stroke-width:1.1px;"/>
        <path d="M228.36,213.8L228.36,221.55L97.57,221.55L97.57,213.8C97.57,206.612 103.482,200.695 110.67,200.69L215.25,200.69C222.442,200.69 228.36,206.608 228.36,213.8Z" style="fill:rgb(14,165,233);fill-rule:nonzero;stroke:rgb(38,50,56);stroke-width:1.1px;stroke-linecap:butt;stroke-linejoin:miter;stroke-miterlimit:10;"/>
        <rect x="109.87" y="230.53" width="32.18" height="5.4" style="fill:rgb(14,165,233);"/>
        <rect x="109.87" y="278.92" width="32.18" height="5.4" style="fill:rgb(14,165,233);"/>
        <rect x="109.87" y="322.8" width="32.18" height="5.4" style="fill:rgb(14,165,233);"/>
        <rect x="109.87" y="243.9" width="91.39" height="3.96" style="fill:rgb(38,50,56);"/>
        <rect x="109.87" y="251.47" width="74.91" height="3.86" style="fill:rgb(38,50,56);"/>
        <rect x="109.87" y="258.92" width="84.72" height="3.86" style="fill:rgb(38,50,56);"/>
        <rect x="109.87" y="266.36" width="84.72" height="3.86" style="fill:rgb(38,50,56);"/>
        <rect x="109.87" y="287.78" width="91.39" height="3.96" style="fill:rgb(38,50,56);"/>
        <rect x="109.87" y="295.35" width="74.91" height="3.86" style="fill:rgb(38,50,56);"/>
        <rect x="109.87" y="302.8" width="84.72" height="3.86" style="fill:rgb(38,50,56);"/>
        <rect x="109.87" y="335.96" width="91.39" height="3.96" style="fill:rgb(38,50,56);"/>
        <rect x="109.87" y="343.54" width="74.91" height="3.86" style="fill:rgb(38,50,56);"/>
        <rect x="109.87" y="350.99" width="84.72" height="3.86" style="fill:rgb(38,50,56);"/>
        <path d="M375.77,100.29L375.77,158.81C375.77,167.384 368.714,174.44 360.14,174.44C360.137,174.44 360.133,174.44 360.13,174.44L225.35,174.44C225.347,174.44 225.343,174.44 225.34,174.44C216.766,174.44 209.71,167.384 209.71,158.81L209.71,100.29C209.715,91.712 216.772,84.655 225.35,84.65L360.13,84.65C368.71,84.65 375.77,91.71 375.77,100.29Z" style="fill:white;fill-rule:nonzero;stroke:rgb(34,34,33);stroke-width:1.1px;stroke-linecap:butt;stroke-linejoin:miter;stroke-miterlimit:10;"/>
        <path d="M375.77,100.29L375.77,101.63L209.71,101.63L209.71,100.29C209.715,91.712 216.772,84.655 225.35,84.65L360.13,84.65C368.71,84.65 375.77,91.71 375.77,100.29Z" style="fill:rgb(14,165,233);fill-rule:nonzero;stroke:rgb(38,50,56);stroke-width:1.1px;stroke-linecap:butt;stroke-linejoin:miter;stroke-miterlimit:10;"/>
        <path d="M234.11,95.94C233.66,96.391 233.048,96.645 232.411,96.645C231.094,96.645 230.011,95.562 230.011,94.245C230.011,92.928 231.094,91.845 232.411,91.845C233.048,91.845 233.66,92.099 234.11,92.55C235.033,93.483 235.033,95.007 234.11,95.94Z" style="fill:rgb(38,50,56);fill-rule:nonzero;"/>
        <path d="M245.23,95.94C244.78,96.391 244.168,96.645 243.531,96.645C242.214,96.645 241.131,95.562 241.131,94.245C241.131,92.928 242.214,91.845 243.531,91.845C244.168,91.845 244.78,92.099 245.23,92.55C246.153,93.483 246.153,95.007 245.23,95.94Z" style="fill:rgb(38,50,56);fill-rule:nonzero;"/>
        <path d="M256.35,95.94C255.9,96.391 255.288,96.645 254.651,96.645C253.334,96.645 252.251,95.562 252.251,94.245C252.251,92.928 253.334,91.845 254.651,91.845C255.288,91.845 255.9,92.099 256.35,92.55C257.273,93.483 257.273,95.007 256.35,95.94Z" style="fill:rgb(38,50,56);fill-rule:nonzero;"/>
        <rect x="220.3" y="112.39" width="54.28" height="46.92" style="fill:none;stroke:rgb(38,50,56);stroke-width:1.1px;stroke-dasharray:4.41,4.41;"/>
        <rect x="282.96" y="112.39" width="62.47" height="3.3" style="fill:rgb(38,50,56);"/>
        <rect x="282.96" y="119.22" width="47.92" height="3.29" style="fill:rgb(38,50,56);"/>
        <rect x="282.96" y="126.02" width="71.35" height="3.33" style="fill:rgb(38,50,56);"/>
        <rect x="282.96" y="132.65" width="60.76" height="3.33" style="fill:rgb(38,50,56);"/>
        <path d="M386.84,251.143C386.84,248.045 384.271,245.53 381.106,245.53L348.964,245.53C345.799,245.53 343.23,248.045 343.23,251.143L343.23,270.907C343.23,274.005 345.799,276.52 348.964,276.52L381.106,276.52C384.271,276.52 386.84,274.005 386.84,270.907L386.84,251.143Z" style="fill:white;stroke:rgb(38,50,56);stroke-width:1.1px;"/>
        <path d="M357.3,254.85L348.91,260.11L356.7,267.01" style="fill:none;fill-rule:nonzero;stroke:rgb(38,50,56);stroke-width:1.1px;"/>
        <path d="M372.58,267.51L380.12,261.09L371.42,255.39" style="fill:none;fill-rule:nonzero;stroke:rgb(38,50,56);stroke-width:1.1px;"/>
        <path d="M361.38,271.47L367.57,252.05" style="fill:none;fill-rule:nonzero;stroke:rgb(38,50,56);stroke-width:1.1px;"/>
    </g>
    <g id="freepik--Character--inject-5" transform="matrix(1.13875,0,0,1.16342,-34.6863,-49.319)">
        <path d="M296.86,440.47C296.86,440.47 267.86,448.78 263.81,450.22C260.13,451.52 250.15,455.02 242.66,453.93C241.937,453.826 241.222,453.672 240.52,453.47C232.93,451.21 229.52,449.1 228.52,444.33C227.52,439.56 231.3,436.04 234.94,433.79C238.58,431.54 258.32,429.19 258.32,429.19L263.09,430.59L296.86,440.47Z" style="fill:rgb(14,165,233);fill-rule:nonzero;"/>
        <path d="M242.66,453.93C241.937,453.826 241.222,453.672 240.52,453.47C232.93,451.21 229.52,449.1 228.52,444.33C227.52,439.56 231.3,436.04 234.94,433.79C238.58,431.54 258.32,429.19 258.32,429.19L263.09,430.59C258.77,432.59 242.69,433.68 239.18,435.7C235.67,437.72 233.98,441.52 236.05,446.7C237.16,449.4 240.12,452.05 242.66,453.93Z" style="fill:white;fill-rule:nonzero;"/>
        <path d="M292.5,441.65C292.5,441.65 270.72,447.29 262.08,450.9C253.44,454.51 236.97,456.09 231.08,448.65C225.19,441.21 230.4,434.79 236.27,433.36C242.14,431.93 254.01,429.68 260.49,430.59" style="fill:none;fill-rule:nonzero;stroke:rgb(38,50,56);stroke-width:1.1px;"/>
        <path d="M243.09,453.54C243.09,453.54 232.01,447.46 235.69,438.94C238.41,432.66 253.19,434.02 260.51,430.59" style="fill:none;fill-rule:nonzero;stroke:rgb(38,50,56);stroke-width:1.1px;"/>
        <path d="M385.19,455.28C384.89,458.28 383.84,461.09 380.84,462.86C378.84,464.04 376,464.74 371.93,464.7C361.76,464.57 342.64,457.3 342.64,457.3L324.74,447.4L334.05,432.67L336.6,428.67L343.18,430.15C343.18,430.15 348.63,433.24 354.11,435.7C359.59,438.16 372.9,438.7 377.59,442.47C382.28,446.24 385.7,450.34 385.19,455.28Z" style="fill:rgb(14,165,233);fill-rule:nonzero;"/>
        <path d="M385.19,455.28C384.89,458.28 383.84,461.09 380.84,462.86C381.704,459.912 381.527,456.754 380.34,453.92C378.34,449.43 371.83,445.47 363.27,444.81C354.71,444.15 348.16,440.15 344.73,438.36C342.05,436.97 336.4,433.93 334.05,432.67L336.6,428.67L343.18,430.15C343.18,430.15 348.63,433.24 354.11,435.7C359.59,438.16 372.9,438.7 377.59,442.47C382.28,446.24 385.7,450.34 385.19,455.28Z" style="fill:white;fill-rule:nonzero;"/>
        <path d="M328.71,450.18C341.595,457.67 355.836,462.533 370.61,464.49C373.87,464.88 377.66,464.94 379.84,462.49C381.011,461.061 381.553,459.215 381.34,457.38C380.95,452.78 377.08,449.14 372.84,447.31C368.6,445.48 363.93,445.06 359.42,444.05C354.935,443.039 350.599,441.452 346.52,439.33C343.28,437.64 340.15,435.59 336.58,434.83C333.01,434.07 328.76,434.99 326.85,438.11" style="fill:none;fill-rule:nonzero;stroke:rgb(38,50,56);stroke-width:1.1px;"/>
        <path d="M378.64,463.74C382.035,462.115 384.467,458.974 385.19,455.28C385.84,450.95 383.37,446.59 379.9,443.93C376.43,441.27 372.08,440.01 367.79,439.12C363.5,438.23 359.11,437.63 355,436C348.73,433.54 342.54,428.7 336,430.43" style="fill:none;fill-rule:nonzero;stroke:rgb(38,50,56);stroke-width:1.1px;"/>
        <path d="M348.91,295.26L318.62,283.74L318.24,283.59C318.24,283.59 318.35,282.79 318.44,281.59C318.63,279.17 318.73,275.23 317.59,273.9C315.9,271.9 311.12,273.58 306.45,271.44C301.78,269.3 293.15,273.13 293.15,273.13C293.15,273.13 286.91,271.98 284.15,276.48C282.75,280.11 283.23,285.48 283.23,285.48L282.66,285.68C279.05,287.03 259.41,294.42 255.26,297.39C250.67,300.64 245.59,334.01 243.96,343.81C242.33,353.61 239.43,362.44 240.9,365.81C242.37,369.18 263.47,385.43 275.61,389.62C287.75,393.81 330.8,392.62 330.8,392.62C330.8,392.62 331.5,392.43 332.75,392.03C340.03,389.69 365.86,380.03 379.57,357.35C379.59,357.39 366.31,313.86 348.91,295.26ZM267.07,351.39C264.84,352.97 266.07,359.09 266.07,359.09L262.28,355.75L271.8,332.34L275.86,350.34C275.86,350.34 269.3,349.82 267.07,351.39ZM343.23,366.26C342.18,366.8 346.23,355.55 344.31,353C342.39,350.45 336.6,350.69 336.6,350.69L337.09,347.62L340.52,330.02L341.66,328.67C341.66,328.67 353.44,348.86 355.55,355.98C355.55,356 342.71,366.26 343.23,366.26Z" style="fill:rgb(14,165,233);fill-rule:nonzero;"/>
        <path d="M291.72,222.25L276.08,238.85C276.08,238.85 273.93,240.76 274.78,245.57C275.63,250.38 277.63,254.57 279.14,254.85C280.335,255.059 281.546,255.166 282.76,255.17C283.974,255.174 286.11,262.43 288.49,265.28C288.49,265.28 289.31,276.49 288.87,279.6C288.87,279.6 294.49,284.51 299.78,285.13C305.07,285.75 313.24,277.65 313.24,277.65L315.24,267.73C315.24,267.73 320.04,260.45 320.36,258.51C320.68,256.57 322.88,257.07 323.96,256.11C325.04,255.15 327.53,250.88 327.96,246.84C328.39,242.8 328.4,238.16 323.71,239.52C319.64,238.43 322.19,229.83 322.19,229.83L315.04,223.53L291.72,222.25Z" style="fill:white;fill-rule:nonzero;"/>
        <path d="M318.62,283.74C318.384,284.358 318.114,284.962 317.81,285.55C315.23,290.41 303.99,299.68 303.99,299.68L300.59,289.23L298.73,299.68C294.98,298.04 283.54,288.13 283.54,288.13C283.54,288.13 283.15,287.2 282.68,285.75L283.25,285.55C283.25,285.55 282.77,280.14 284.17,276.55C286.91,272.05 293.17,273.2 293.17,273.2C293.17,273.2 301.8,269.37 306.47,271.51C311.14,273.65 315.92,271.99 317.61,273.97C319.3,275.95 318.26,283.63 318.26,283.63L318.62,283.74Z" style="fill:white;fill-opacity:0.5;fill-rule:nonzero;"/>
        <path d="M348.91,295.26L318.62,283.74L318.24,283.59C318.24,283.59 318.35,282.79 318.44,281.59L317.81,285.52L313.33,291.6C318.119,293.363 322.795,295.421 327.33,297.76C331.764,300.135 334.31,305.004 333.73,310L328.15,357.75L325.86,384.86L332.77,392.03C340.05,389.69 365.88,380.03 379.59,357.35C379.59,357.39 366.31,313.86 348.91,295.26ZM343.23,366.26C342.18,366.8 346.23,355.55 344.31,353C342.39,350.45 336.6,350.69 336.6,350.69L337.09,347.62L340.52,330.02L341.66,328.67C341.66,328.67 353.44,348.86 355.55,355.98C355.55,356 342.71,366.26 343.23,366.26Z" style="fill-opacity:0.2;fill-rule:nonzero;"/>
        <path d="M277.87,353L273.16,337.26C273.16,337.26 264.71,308.45 258.92,301.35L260.44,321.61C260.44,321.61 255.44,345.81 250.87,353C246.3,360.19 245.28,362 250.87,362C256.46,362 270.07,372.84 270.07,372.84L269.02,363.84L277.87,353ZM266,359.09L262.21,355.75L271.73,332.34L275.79,350.34C275.79,350.34 269.27,349.85 267.04,351.42C264.81,352.99 266,359.09 266,359.09Z" style="fill-opacity:0.2;fill-rule:nonzero;"/>
        <path d="M288.49,265.28C288.49,265.28 289.35,273.77 288.49,277.65" style="fill:none;fill-rule:nonzero;stroke:rgb(38,50,56);stroke-width:1.1px;"/>
        <path d="M314.11,276.51C314.119,273.78 314.435,271.06 315.05,268.4" style="fill:none;fill-rule:nonzero;stroke:rgb(38,50,56);stroke-width:1.1px;"/>
        <path d="M316.38,228.58C316.38,228.58 321.52,235.03 321.25,239.91C320.98,244.79 320.6,250.57 320.73,256.23C320.86,261.89 311.64,273.75 306.9,274.8C302.16,275.85 298.08,276.12 295.05,273.09C292.02,270.06 288.99,265.85 285.05,260.45C281.11,255.05 282.05,243.2 282.05,243.2" style="fill:none;fill-rule:nonzero;stroke:rgb(38,50,56);stroke-width:1.1px;"/>
        <path d="M304,247.71C303.687,249.482 303.553,251.281 303.6,253.08C303.497,254.596 303.968,256.096 304.92,257.28C305.49,257.86 306.31,258.33 306.42,259.13C306.414,259.863 306.007,260.536 305.36,260.88C304.719,261.203 304.101,261.571 303.51,261.98" style="fill:none;fill-rule:nonzero;stroke:rgb(38,50,56);stroke-width:1.1px;"/>
        <path d="M295.87,262.6C295.87,262.6 296.46,266.43 301.59,267.23" style="fill:none;fill-rule:nonzero;stroke:rgb(38,50,56);stroke-width:1.1px;"/>
        <path d="M296.4,250.63C296.4,251.74 295.92,252.63 295.33,252.63C294.74,252.63 294.26,251.74 294.26,250.63C294.26,249.52 294.74,248.63 295.33,248.63C295.92,248.63 296.4,249.53 296.4,250.63Z" style="fill:rgb(38,50,56);fill-rule:nonzero;"/>
        <path d="M311.71,251.11C311.71,252.22 311.23,253.11 310.64,253.11C310.05,253.11 309.57,252.21 309.57,251.11C309.57,250.01 310.05,249.11 310.64,249.11C311.23,249.11 311.71,250 311.71,251.11Z" style="fill:rgb(38,50,56);fill-rule:nonzero;"/>
        <path d="M308.62,246.26C308.62,246.26 313.62,241.26 317.81,246.84" style="fill:none;fill-rule:nonzero;stroke:rgb(38,50,56);stroke-width:2.21px;"/>
        <path d="M298.09,246.36C298.09,246.36 294.93,242.82 289.95,246.36" style="fill:none;fill-rule:nonzero;stroke:rgb(38,50,56);stroke-width:2.21px;"/>
        <path d="M288.87,270C288.87,270 291.92,278.4 298.73,280.79C305.54,283.18 314.58,270.79 314.58,270.79L314.11,269.18C314.11,269.18 308.18,276.88 301.59,275.57C295,274.26 288.49,265.32 288.49,265.32L288.87,270Z" style="fill:rgb(38,50,56);fill-rule:nonzero;"/>
        <path d="M282.76,254.85C282.76,254.85 278.7,256.28 277.62,253.12C276.54,249.96 272.84,241.63 276.08,238.85C279.32,236.07 281.92,242.52 281.92,242.52" style="fill:none;fill-rule:nonzero;stroke:rgb(38,50,56);stroke-width:1.1px;"/>
        <path d="M320.72,256.57C320.72,256.57 324.49,257.33 325.57,254.17C326.65,251.01 330.35,242.68 327.11,239.9C323.87,237.12 321.27,243.57 321.27,243.57" style="fill:none;fill-rule:nonzero;stroke:rgb(38,50,56);stroke-width:1.1px;"/>
        <path d="M281.92,250.63C283.33,250.408 284.603,249.656 285.48,248.53C286.015,247.541 286.355,246.458 286.48,245.34C286.851,243.213 287.039,241.059 287.04,238.9C286.996,238.057 287.073,237.211 287.27,236.39C287.57,235.564 288.033,234.805 288.63,234.16C290.04,232.5 291.75,231.1 293.1,229.38C294.562,227.74 295.286,225.569 295.1,223.38C301.359,228.541 309.594,230.67 317.57,229.19C324.72,227.79 331.57,221.52 330.74,213.64C330.419,210.938 328.401,208.726 325.74,208.16C322.21,207.28 319.04,209.16 315.84,210.37C310.01,212.57 304.3,208.79 298.41,208.16C293.41,207.61 287.18,208.24 284.56,213.25C284.56,213.25 275.56,214.31 271.56,221.75C267.56,229.19 275.13,239.48 275.13,239.48C275.13,239.48 278.13,235.8 282.06,243.24L281.92,250.63Z" style="fill:rgb(38,50,56);fill-rule:nonzero;"/>
        <path d="M317,226.68C317,226.68 314.66,238.88 320.77,244.79C320.77,244.79 322.11,241.12 323.46,240.22C325.436,235.825 325.032,230.711 322.39,226.68C317.87,219.58 317,226.68 317,226.68Z" style="fill:rgb(38,50,56);fill-rule:nonzero;"/>
        <path d="M328.14,212.8C327.054,216.171 324.467,218.857 321.14,220.07C312.66,223.53 304.43,219.7 295.93,218.95C289,218.33 281.35,224.59 280.86,231.71" style="fill:none;fill-rule:nonzero;stroke:white;stroke-opacity:0.2;stroke-width:1.1px;"/>
        <path d="M275.63,229.83C275.842,224.104 279.358,218.994 284.63,216.75" style="fill:none;fill-rule:nonzero;stroke:white;stroke-opacity:0.2;stroke-width:1.1px;"/>
        <path d="M286.53,276.51C290.259,280.396 294.759,283.462 299.74,285.51C304.721,287.558 309.89,282.56 315.05,275.51" style="fill:none;fill-rule:nonzero;stroke:rgb(38,50,56);stroke-width:1.1px;"/>
        <g transform="matrix(0.908945,-0.416915,0.416915,0.908945,-77.79,145.02)">
            <circle cx="293.15" cy="250.63" r="8.98" style="fill:none;stroke:rgb(38,50,56);stroke-width:1.1px;"/>
        </g>
        <g transform="matrix(0.992546,-0.121869,0.121869,0.992546,-28.22,40.06)">
            <circle cx="313.22" cy="250.63" r="8.98" style="fill:none;stroke:rgb(38,50,56);stroke-width:1.1px;"/>
        </g>
        <path d="M288.49,273.16C286.653,273.642 285.088,274.853 284.16,276.51C282.57,279.31 283.53,288.12 283.53,288.12C283.53,288.12 291.74,296.24 298.73,299.67L300.79,288.08L303.99,299.67C303.99,299.67 314.81,292.02 317.81,285.55C317.81,285.55 318.81,278 317.81,275.55C317.345,274.159 316.046,273.206 314.58,273.18" style="fill:none;fill-rule:nonzero;stroke:rgb(38,50,56);stroke-width:1.1px;"/>
        <path d="M275.63,350.7C275.63,350.7 272.42,329.2 268.15,320.43" style="fill:none;fill-rule:nonzero;stroke:rgb(38,50,56);stroke-width:1.1px;"/>
        <path d="M258.92,301.35C261.406,304.883 263.626,308.597 265.56,312.46" style="fill:none;fill-rule:nonzero;stroke:rgb(38,50,56);stroke-width:1.1px;"/>
        <path d="M343.23,317.4C344.092,313.805 345.273,310.295 346.76,306.91" style="fill:none;fill-rule:nonzero;stroke:rgb(38,50,56);stroke-width:1.1px;"/>
        <path d="M336.6,350.7C336.6,350.7 338.91,335.96 341.67,323.82" style="fill:none;fill-rule:nonzero;stroke:rgb(38,50,56);stroke-width:1.1px;"/>
        <path d="M340.52,330C342.752,327.04 345.893,324.89 349.46,323.88" style="fill:none;fill-rule:nonzero;stroke:rgb(38,50,56);stroke-width:1.1px;"/>
        <path d="M318.25,283.59C318.25,283.59 336.88,291.04 348.91,295.27C348.91,295.27 363.71,309.18 379.58,357.39C379.58,357.39 365.04,381.85 337.38,389.69" style="fill:none;fill-rule:nonzero;stroke:rgb(38,50,56);stroke-width:1.1px;"/>
        <path d="M342.18,367.13L355.55,356C355.55,356 362.62,350.63 369.97,354.3" style="fill:none;fill-rule:nonzero;stroke:rgb(38,50,56);stroke-width:1.1px;"/>
        <path d="M341.67,328.67C341.67,328.67 352.72,345 355.55,356" style="fill:none;fill-rule:nonzero;stroke:rgb(38,50,56);stroke-width:1.1px;"/>
        <path d="M266.15,359.71L262.24,356C262.24,356 256.44,355 249.86,359.39" style="fill:none;fill-rule:nonzero;stroke:rgb(38,50,56);stroke-width:1.1px;"/>
        <path d="M262.24,356C262.24,356 267.1,340 271.89,331.81" style="fill:none;fill-rule:nonzero;stroke:rgb(38,50,56);stroke-width:1.1px;"/>
        <path d="M283.25,285.55C283.25,285.55 256.44,295.61 253.81,298.55C251.18,301.49 241.19,357.74 240.92,364.18C240.69,369.94 261.57,382.87 271.92,388.32" style="fill:none;fill-rule:nonzero;stroke:rgb(38,50,56);stroke-width:1.1px;"/>
        <path d="M303.3,304.56C303.3,305.531 302.501,306.33 301.53,306.33C300.559,306.33 299.76,305.531 299.76,304.56C299.76,303.589 300.559,302.79 301.53,302.79C301.533,302.79 301.537,302.79 301.54,302.79C302.506,302.79 303.3,303.584 303.3,304.55C303.3,304.553 303.3,304.557 303.3,304.56Z" style="fill:rgb(38,50,56);fill-rule:nonzero;"/>
        <path d="M334.32,398.78L273.32,398.78C272.536,398.78 271.89,398.134 271.89,397.35C271.89,396.566 272.536,395.92 273.32,395.92L334.32,395.92C335.104,395.92 335.75,396.566 335.75,397.35C335.75,398.134 335.104,398.78 334.32,398.78Z" style="fill:rgb(38,50,56);fill-rule:nonzero;"/>
        <path d="M336.46,394L344.63,355.6C344.69,355.321 344.72,355.036 344.72,354.75C344.72,352.512 342.878,350.67 340.64,350.67C340.636,350.67 340.633,350.67 340.63,350.67L269.33,350.67C267.092,350.67 265.251,352.512 265.251,354.75C265.251,355.019 265.277,355.287 265.33,355.55L272.66,392.67C273.029,394.541 274.663,395.917 276.57,395.96L332.36,397.24C334.319,397.283 336.049,395.916 336.46,394Z" style="fill:white;fill-rule:nonzero;stroke:rgb(38,50,56);stroke-width:1.1px;"/>
        <path d="M310.44,372.83C310.435,375.948 307.868,378.51 304.75,378.51C301.629,378.51 299.06,375.941 299.06,372.82C299.06,369.699 301.629,367.13 304.75,367.13C304.75,367.13 304.75,367.13 304.75,367.13C307.871,367.13 310.44,369.699 310.44,372.82C310.44,372.823 310.44,372.827 310.44,372.83Z" style="fill:rgb(38,50,56);fill-rule:nonzero;"/>
        <path d="M321.63,354.34L330.1,354.34" style="fill:none;fill-rule:nonzero;stroke:rgb(38,50,56);stroke-width:1.1px;"/>
        <path d="M281.18,354.34L313.33,354.34" style="fill:none;fill-rule:nonzero;stroke:rgb(38,50,56);stroke-width:1.1px;"/>
        <path d="M336.6,434.77L330.1,451.83C330.1,451.83 313.52,447.65 292.29,443.3C270.08,438.75 246.89,432.86 234.86,411.75C233.4,409.18 232.42,406.14 233.11,403.26C234.84,395.97 244.33,393.99 250.58,393.26C254.509,392.835 258.458,392.615 262.41,392.6C264.41,392.6 271.06,391.51 272.67,392.7C275.089,394.465 277.671,395.995 280.38,397.27C283.93,398.78 335.75,395.92 335.75,395.92C336.652,393.954 337.203,391.846 337.38,389.69C345.53,385.55 364.38,382.05 372.38,383.6C384.91,386.03 392.22,393.34 390.83,401C389.44,408.66 361.76,429.2 336.6,434.77Z" style="fill:rgb(38,50,56);fill-rule:nonzero;"/>
        <path d="M336.6,434.77C336.6,434.77 320.83,430.59 307.95,421.89C295.07,413.19 285.01,403.09 267.06,405.18" style="fill:none;fill-rule:nonzero;stroke:white;stroke-width:1.1px;"/>
        <path d="M305,419.84C313.14,417.5 319.11,412.23 325.64,407.18C332.528,401.652 339.924,396.79 347.73,392.66" style="fill:none;fill-rule:nonzero;stroke:white;stroke-width:1.1px;"/>
        <path d="M302.13,252.05L304.52,252.05" style="fill:none;fill-rule:nonzero;stroke:rgb(38,50,56);stroke-width:1.1px;"/>
    </g>
</svg>
