<svg xmlns="http://www.w3.org/2000/svg" width="32" height="32"><style>@media (prefers-color-scheme:dark){.favicon-border{fill:#f0f9ff}.favicon-letter{fill:#bae6fd}}</style><path fill="#334155" d="M32 4v24c0 2.208-1.792 4-4 4H4c-2.208 0-4-1.792-4-4V4c0-2.208 1.792-4 4-4h24c2.208 0 4 1.792 4 4Zm-2 0a2 2 0 0 0-2-2H4a2 2 0 0 0-2 2v24a2 2 0 0 0 2 2h24a2 2 0 0 0 2-2V4Z" class="favicon-border"/><path fill="#0ea5e9" d="M20.398 24.774 10.432 10.58h-.09v9.674c0 .75.026 1.342.079 1.777.052.435.165.772.337 1.012.173.24.413.398.72.473.307.075.709.12 1.204.135v.9H6v-.9c.555-.015 1.001-.064 1.338-.147.338-.082.6-.236.788-.46.187-.226.311-.545.371-.957.06-.412.09-.971.09-1.676v-9.044c0-.63-.03-1.151-.09-1.563-.06-.413-.172-.74-.337-.98a1.308 1.308 0 0 0-.709-.505c-.307-.098-.716-.162-1.226-.192v-.9h6.277l9.066 13.004h.09v-8.706c0-.735-.026-1.324-.079-1.766-.052-.443-.165-.784-.337-1.024a1.205 1.205 0 0 0-.72-.473c-.308-.075-.709-.12-1.204-.135v-.9H26v.9c-.555.015-1.001.064-1.339.147-.337.082-.6.236-.787.46-.188.226-.311.548-.371.968-.06.42-.09.975-.09 1.665v13.408h-3.015Z" class="favicon-letter"/></svg>